<svg width="1892" height="1273" viewBox="0 0 1892 1273" fill="none" xmlns="http://www.w3.org/2000/svg">
<path d="M297.208 559.738L297.208 1109.09L-178.543 834.413L297.208 559.738Z" stroke="#EBEBEB"/>
<circle cx="296.896" cy="1108.88" r="5" transform="rotate(-30 296.896 1108.88)" fill="#F2F2F2"/>
<circle cx="297.053" cy="559.154" r="5" transform="rotate(-30 297.053 559.154)" fill="#F2F2F2"/>
<path d="M425.594 1.3811L425.594 257.777L203.549 129.579L425.594 1.3811Z" stroke="#EBEBEB"/>
<path d="M1668.56 673.777L1668.56 417.381L1890.61 545.579L1668.56 673.777Z" stroke="#EBEBEB"/>
<path d="M1312.62 536.625L836.874 811.299L836.874 261.95L1312.62 536.625Z" stroke="#EBEBEB"/>
<circle cx="836.739" cy="261.198" r="5" transform="rotate(30 836.739 261.198)" fill="#F2F2F2"/>
<circle cx="836.896" cy="810.926" r="5" transform="rotate(30 836.896 810.926)" fill="#F2F2F2"/>
<circle cx="1313.05" cy="536.198" r="5" transform="rotate(30 1313.05 536.198)" fill="#F2F2F2"/>
</svg>
