<svg width="1892" height="1273" fill="none" xmlns="http://www.w3.org/2000/svg"><path d="M297.208 559.738v549.352l-475.751-274.677 475.751-274.675z" stroke="#EBEBEB"/><circle cx="296.896" cy="1108.88" r="5" transform="rotate(-30 296.896 1108.88)" fill="#F2F2F2"/><circle cx="297.053" cy="559.154" r="5" transform="rotate(-30 297.053 559.154)" fill="#F2F2F2"/><path d="M425.594 1.381v256.396L203.549 129.579 425.594 1.381zM1668.56 673.777V417.381l222.05 128.198-222.05 128.198zm-355.94-137.152L836.874 811.299V261.95l475.746 274.675z" stroke="#EBEBEB"/><circle cx="836.739" cy="261.198" r="5" transform="rotate(30 836.739 261.198)" fill="#F2F2F2"/><circle cx="836.896" cy="810.926" r="5" transform="rotate(30 836.896 810.926)" fill="#F2F2F2"/><circle cx="1313.05" cy="536.198" r="5" transform="rotate(30 1313.05 536.198)" fill="#F2F2F2"/></svg>